<svg width="342" height="526" viewBox="0 0 342 526" fill="none" xmlns="http://www.w3.org/2000/svg">
<path d="M198.981 428.734C198.981 428.734 218.604 470.845 218.604 497.736C218.604 508.237 205.893 515.672 213.516 520.993C220.14 525.616 225.246 516.169 233.139 514.452C241.777 512.573 249.892 518.961 255.67 512.271C263.87 502.776 242.566 497.553 236.047 486.834C221.237 462.487 214.97 416.972 214.97 416.972L198.981 428.734Z" fill="#F97316"/>
<path d="M126.303 493.375C130.603 466.115 145.926 436.686 145.926 436.686L129.21 430.872C129.21 430.872 126.498 463.266 113.221 482.473C103.033 497.212 61.8143 505.339 78.3359 512.271C87.0083 515.91 92.9311 509.535 102.32 510.091C110.988 510.604 117.272 519.787 124.123 514.452C130.652 509.368 125.014 501.549 126.303 493.375Z" fill="#F97316"/>
<path d="M263.664 388.719C277.304 380.384 299.276 378.544 298.549 372.73C297.823 366.916 267.298 360.375 267.298 360.375C267.298 360.375 254.37 366.41 245.495 366.916C237.76 367.356 230.808 369.979 225.872 364.009C221.169 358.322 221.169 350.8 225.872 345.113C229.663 353.71 238.65 357.904 247.675 355.287C253.471 353.607 259.303 345.113 259.303 345.113C259.303 345.113 284.014 313.861 281.107 304.413C278.2 294.965 250.235 289.002 236.773 272.435C228.515 262.271 225.145 252.812 224.418 239.73C223.691 226.648 220.784 191.762 225.145 167.779C228.71 148.172 243.666 140.175 242.588 120.538C241.508 100.894 240.407 83.4726 220.057 75.4781C205.264 69.6664 192.603 66.6927 179.358 75.4781C172.816 79.8173 166.276 90.7404 166.276 90.7404C166.276 90.7404 176.589 88.1388 182.265 90.7404C194.65 96.4167 179.259 111.549 185.899 123.445C189.616 130.105 196.91 127.875 196.074 132.894C194.62 141.615 173.795 155.302 164.096 155.424C154.396 155.545 143.019 148.883 143.019 148.883C143.019 148.883 142.007 167.61 139.385 179.407C129.21 225.194 103.721 276.069 103.721 276.069C103.721 276.069 85.3423 302.358 82.6965 321.856C81.4753 330.856 82.6965 345.113 82.6965 345.113C82.6965 345.113 82.0069 352.692 82.6965 357.468C83.7847 365.003 84.8769 378.544 84.8769 378.544C84.8769 378.544 86.0177 395.573 102.32 416.972C109.587 426.512 129.21 430.872 129.21 430.872L145.926 436.686C145.926 436.686 180.876 440.957 196.074 430.872C197.248 430.093 198.981 428.734 198.981 428.734L214.97 416.972C214.97 416.972 250.582 396.714 263.664 388.719Z" fill="white"/>
<path d="M82.6965 357.468C82.0069 352.692 82.6965 345.113 82.6965 345.113C82.6965 345.113 65.5923 350.624 64.5271 359.648C63.1595 371.234 84.8769 378.544 84.8769 378.544C84.8769 378.544 83.7847 365.003 82.6965 357.468Z" fill="white"/>
<path d="M82.6965 321.856C85.3423 302.358 103.721 276.069 103.721 276.069C103.721 276.069 59.4396 300.779 57.2593 311.681C55.079 322.582 82.6965 345.113 82.6965 345.113C82.6965 345.113 81.4753 330.856 82.6965 321.856Z" fill="white"/>
<path d="M267.298 360.375C267.298 360.375 268.145 355.816 267.298 353.107C265.981 348.893 259.303 345.113 259.303 345.113C259.303 345.113 253.471 353.607 247.675 355.287C238.65 357.904 229.663 353.71 225.872 345.113C221.169 350.8 221.169 358.322 225.872 364.009C230.808 369.979 237.76 367.356 245.495 366.916C254.37 366.41 267.298 360.375 267.298 360.375Z" fill="white"/>
<path d="M143.019 148.883C143.019 148.883 154.396 155.545 164.096 155.424C173.795 155.302 194.62 141.615 196.074 132.894C196.91 127.875 189.616 130.105 185.899 123.445C179.259 111.549 194.65 96.4167 182.265 90.7404C176.589 88.1388 166.276 90.7404 166.276 90.7404C166.276 90.7404 153.62 105.376 147.38 107.456C143.019 108.91 123.396 112.544 117.582 104.549C110.911 95.3763 103.773 93.6475 99.4124 94.3743C93.016 95.4404 92.0517 99.5188 92.1446 106.003C92.2863 115.887 105.227 125.626 108.861 128.533C121.646 138.761 143.019 148.883 143.019 148.883Z" fill="#F97316"/>
<path d="M143.019 148.883C143.019 148.883 142.007 167.61 139.385 179.407C129.21 225.194 103.721 276.069 103.721 276.069M143.019 148.883C143.019 148.883 154.396 155.545 164.096 155.424C173.795 155.302 194.62 141.615 196.074 132.894C196.91 127.875 189.616 130.105 185.899 123.445C179.259 111.549 194.65 96.4167 182.265 90.7404C176.589 88.1388 166.276 90.7404 166.276 90.7404M143.019 148.883C143.019 148.883 121.646 138.761 108.861 128.533C105.227 125.626 92.2863 115.887 92.1446 106.003C92.0517 99.5188 93.016 95.4404 99.4124 94.3743C103.773 93.6475 110.911 95.3762 117.582 104.549C123.396 112.544 143.019 108.91 147.38 107.456C153.62 105.376 166.276 90.7404 166.276 90.7404M166.276 90.7404C166.276 90.7404 172.816 79.8173 179.358 75.4781C192.603 66.6927 205.264 69.6664 220.057 75.4781C240.407 83.4726 241.508 100.894 242.588 120.538C243.666 140.175 228.71 148.172 225.145 167.779C220.784 191.762 223.691 226.648 224.418 239.73C225.145 252.812 228.515 262.271 236.773 272.435C250.235 289.002 278.2 294.965 281.107 304.413C284.014 313.861 259.303 345.113 259.303 345.113M267.298 360.375C267.298 360.375 297.823 366.916 298.549 372.73C299.276 378.544 277.304 380.384 263.664 388.719C250.582 396.714 214.97 416.972 214.97 416.972M267.298 360.375C267.298 360.375 268.145 355.816 267.298 353.107C265.981 348.893 259.303 345.113 259.303 345.113M267.298 360.375C267.298 360.375 254.37 366.41 245.495 366.916C237.76 367.356 230.808 369.979 225.872 364.009C221.169 358.322 221.169 350.8 225.872 345.113M259.303 345.113C259.303 345.113 253.471 353.607 247.675 355.287C238.65 357.904 229.663 353.71 225.872 345.113M225.872 345.113C231.548 336.03 240.407 321.856 240.407 321.856L220.057 308.774M202.615 111.817C202.615 111.817 208.4 119.085 213.516 119.085C218.633 119.085 224.418 111.817 224.418 111.817M103.721 276.069C103.721 276.069 85.3423 302.358 82.6965 321.856C81.4753 330.856 82.6965 345.113 82.6965 345.113M103.721 276.069C103.721 276.069 59.4396 300.779 57.2593 311.681C55.079 322.582 82.6965 345.113 82.6965 345.113M82.6965 345.113C82.6965 345.113 82.0069 352.692 82.6965 357.468C83.7847 365.003 84.8769 378.544 84.8769 378.544M82.6965 345.113C82.6965 345.113 65.5923 350.624 64.5271 359.648C63.1595 371.234 84.8769 378.544 84.8769 378.544M84.8769 378.544C84.8769 378.544 86.0177 395.573 102.32 416.972C109.587 426.512 129.21 430.872 129.21 430.872M61.62 207.025L26.0079 236.823M36.9095 148.883L3.47778 153.97M51.4451 77.6584L21.6472 59.489M137.205 38.4124L119.035 4.25391M230.232 38.4124L238.954 4.25391M286.921 87.8333L322.533 72.571M301.457 145.976H338.522M286.921 207.025L320.353 229.555M198.981 428.734C198.981 428.734 197.248 430.093 196.074 430.872C180.876 440.957 145.926 436.686 145.926 436.686M198.981 428.734C198.981 428.734 218.604 470.845 218.604 497.736C218.604 508.237 205.893 515.672 213.516 520.993C220.14 525.616 225.246 516.169 233.139 514.452C241.777 512.573 249.892 518.961 255.67 512.271C263.87 502.776 242.566 497.553 236.047 486.834C221.237 462.487 214.97 416.972 214.97 416.972M198.981 428.734L214.97 416.972M145.926 436.686C145.926 436.686 130.603 466.115 126.303 493.375C125.014 501.549 130.652 509.368 124.123 514.452C117.272 519.787 110.988 510.604 102.32 510.091C92.9311 509.535 87.0083 515.91 78.3359 512.271C61.8143 505.339 103.033 497.212 113.221 482.473C126.498 463.266 129.21 430.872 129.21 430.872M145.926 436.686L129.21 430.872" stroke="#27272A" stroke-width="6.90672" stroke-linecap="round"/>
</svg>
