<svg width="660" height="639" viewBox="0 0 660 639" fill="none" xmlns="http://www.w3.org/2000/svg">
<path d="M296.382 121.767C296.382 121.767 295.474 127.272 297.244 129.957C298.43 131.756 301.554 133.405 301.554 133.405C301.554 133.405 303.199 130.906 303.278 129.095C303.449 125.169 296.382 121.767 296.382 121.767Z" fill="#18181B"/>
<path d="M234.747 129.526C234.747 129.526 239.005 135.386 236.902 138.146C236.249 139.003 234.747 139.87 234.747 139.87C234.747 139.87 233.246 139.003 232.592 138.146C230.489 135.386 234.747 129.526 234.747 129.526Z" fill="#18181B"/>
<path fill-rule="evenodd" clip-rule="evenodd" d="M224.403 70.0466C234.901 67.4221 239.013 74.9811 249.833 74.7876C261.968 74.5706 267.081 63.078 279.141 64.4434C288.192 65.4681 286.828 72.2228 297.244 90.735C305.771 105.891 313.437 128.58 328.707 149.783C333.331 156.204 341.206 161.851 341.206 165.73C341.206 169.61 333.017 174.781 331.293 177.799C329.569 180.816 330 186.203 330 186.203C330 186.203 317.084 210.258 302.416 217.02C285.743 224.707 264.487 219.176 246.816 211.848C229.144 204.521 226.989 197.625 223.972 196.332C220.955 195.039 206.732 194.608 206.732 194.608C206.732 194.608 204.146 191.16 201.991 188.143C199.836 185.126 196.388 179.953 199.405 170.471C202.422 160.989 209.749 148.49 211.904 138.146C214.059 127.802 210.611 91.166 212.766 83.4079C214.921 75.6497 219.231 71.3396 224.403 70.0466ZM236.902 138.146C239.005 135.386 234.747 129.526 234.747 129.526C234.747 129.526 230.489 135.386 232.592 138.146C233.246 139.003 234.747 139.87 234.747 139.87C234.747 139.87 236.249 139.003 236.902 138.146ZM297.244 129.957C295.474 127.272 296.382 121.767 296.382 121.767C296.382 121.767 303.449 125.169 303.278 129.095C303.199 130.906 301.554 133.405 301.554 133.405C301.554 133.405 298.43 131.756 297.244 129.957Z" fill="#F9BF3A"/>
<path d="M223.11 220.468C214.489 212.187 206.732 194.608 206.732 194.608C206.732 194.608 220.955 195.039 223.972 196.332C226.989 197.625 229.144 204.521 246.816 211.848C264.487 219.176 285.743 224.707 302.416 217.02C317.084 210.258 330 186.203 330 186.203L328.707 194.608C328.707 194.608 326.983 205.383 320.087 213.141C313.191 220.9 299.088 220.961 285.175 224.347C267.158 228.733 250.695 232.106 242.937 230.813C235.178 229.52 228.331 225.484 223.11 220.468Z" fill="#F09431"/>
<path d="M180.009 88.1488C181.438 94.3583 181.733 102.803 176.561 104.096C170.309 105.659 168.311 97.3075 166.648 91.1659C164.962 84.939 163.631 76.6463 168.803 74.7876C174.406 72.774 178.482 81.5121 180.009 88.1488Z" fill="#18181B"/>
<path d="M318.363 58.8404C320.949 58.2848 326.457 61.6754 328.707 67.4604C331.256 74.0134 330.085 80.0178 325.259 85.1318C321.38 86.3003 317.501 76.8182 316.208 73.3701C314.915 69.922 314.915 59.5778 318.363 58.8404Z" fill="#18181B"/>
<path fill-rule="evenodd" clip-rule="evenodd" d="M120.961 638.115C120.961 638.115 94.6164 627.537 80.4465 616.565C66.9809 606.139 50.707 584.67 50.707 584.67C50.707 584.67 45.296 576.112 48.5519 572.602C50.6904 570.297 56.3101 570.447 56.3101 570.447H80.4465C80.4465 570.447 51.8962 552.862 38.2077 536.828C26.0061 522.536 16.6138 514.007 13.6402 495.452C12.3618 487.474 11.4852 476.487 13.6402 474.763C15.7952 473.039 35.1906 478.642 35.1906 478.642C35.1906 478.642 15.3853 449.614 8.03711 428.645C3.95977 417.01 0.278992 398.044 0.278992 398.044C0.278992 398.044 -1.64019 383.888 4.58905 381.665C7.12553 380.76 8.82527 381.244 11.4852 381.665C21.8224 383.304 27.5622 400.725 29.1376 406.271C29.4261 407.363 29.5875 407.957 29.5875 407.957C29.5875 407.957 29.4386 407.331 29.1376 406.271C26.9955 398.16 17.8499 362.543 15.7952 338.134C14.0304 317.168 15.3642 301.067 15.7952 284.258C15.9044 280.001 17.5193 275.634 19.2433 273.913C20.9674 272.193 24.8464 271.758 29.5875 276.499C34.3286 281.241 49.4139 315.29 49.4139 315.29L65.7922 261.414C65.7922 261.414 79.1535 220.468 87.7736 229.52C94.9256 237.029 92.9457 238.571 91.6527 254.518C90.3597 270.465 88.1828 280.817 89.4977 297.619C90.9093 315.656 99.4109 342.875 99.4109 342.875C99.4109 342.875 119.237 329.513 124.409 327.358C129.581 325.203 131.402 324.455 136.047 324.772C141.981 325.178 147.684 329.082 149.839 331.237C151.994 333.393 203.715 385.545 203.715 385.545C203.715 385.545 210.039 392.259 208.025 396.32C206.677 399.038 198.543 397.182 195.095 396.32C191.647 395.458 170.63 377.354 153.287 379.941C142.044 381.618 133.387 383.623 127.426 393.303C122.708 400.965 121.974 407.483 124.409 416.146C126.191 422.484 129.042 427.418 135.616 427.783C151.132 428.645 153.718 419.163 167.51 407.957C172.966 403.524 183.871 397.638 190.785 398.906C194.416 399.572 196.739 400.231 199.405 402.785C202.232 405.493 206.301 411.405 201.991 417.439C197.681 423.473 188.199 438.558 184.75 447.179C181.302 455.799 178.596 463.684 177.854 474.763C176.377 496.817 182.663 510.225 192.174 530.512L192.509 531.225C202.206 551.914 248.109 616.565 248.109 616.565C255.292 579.929 268.751 538.552 269.659 504.503C270.521 472.177 269.228 437.697 256.298 407.957C243.368 378.217 212.766 330.246 190.354 297.188C167.941 264.13 134.35 241.767 130.012 203.228C126.801 174.693 144.667 134.698 144.667 134.698C144.667 134.698 144.734 68.7534 151.563 55.3921C163.636 31.7692 180.009 20.9138 195.526 12.2924C216.215 0.796629 232.592 -1.06974 256.298 0.654166C274.223 1.95771 285.77 5.69508 298.968 17.8945C308.362 26.5785 314.053 37.721 316.639 45.479C318.076 49.7904 318.659 54.3054 318.363 58.8404C314.915 59.5778 314.915 69.922 316.208 73.3701C317.501 76.8182 321.38 86.3003 325.259 85.1318C342.805 103.185 350.871 116.151 359.309 139.87C365.228 156.509 368.606 166.616 367.929 184.264C367.152 204.532 352.413 233.83 352.413 233.83C352.413 233.83 343.161 250.225 341.206 261.845C339.252 273.466 346.524 292.942 354.999 310.98C364.434 331.063 372.368 341.532 385.6 359.684C397.851 376.49 405.026 385.843 419.65 400.63C436.123 417.286 446.391 425.824 465.768 438.99C491.358 456.377 660 638.115 660 638.115H536.453H120.961ZM176.561 104.096C181.733 102.803 181.438 94.3583 180.009 88.1488C178.482 81.5121 174.406 72.774 168.803 74.7876C163.631 76.6463 164.962 84.939 166.648 91.1659C168.311 97.3075 170.309 105.659 176.561 104.096ZM249.833 74.7876C239.013 74.9811 234.901 67.4221 224.403 70.0466C219.231 71.3396 214.921 75.6497 212.766 83.4079C210.611 91.166 214.059 127.802 211.904 138.146C209.749 148.49 202.422 160.989 199.405 170.471C196.388 179.953 199.836 185.126 201.991 188.143C204.146 191.16 206.732 194.608 206.732 194.608C206.732 194.608 214.489 212.187 223.11 220.468C228.331 225.484 235.178 229.52 242.937 230.813C250.695 232.106 267.158 228.733 285.175 224.347C299.088 220.961 313.191 220.9 320.087 213.141C326.983 205.383 328.707 194.608 328.707 194.608L330 186.203C330 186.203 329.569 180.816 331.293 177.799C333.017 174.781 341.206 169.61 341.206 165.73C341.206 161.851 333.331 156.204 328.707 149.783C313.437 128.58 305.771 105.891 297.244 90.735C286.828 72.2228 288.192 65.4681 279.141 64.4434C267.081 63.078 261.968 74.5706 249.833 74.7876Z" fill="white"/>
</svg>
