<svg width="32" height="32" viewBox="0 0 32 32" fill="none" xmlns="http://www.w3.org/2000/svg">
<path d="M15.9998 17.3337C16.7362 17.3337 17.3332 16.7367 17.3332 16.0003C17.3332 15.2639 16.7362 14.667 15.9998 14.667C15.2635 14.667 14.6665 15.2639 14.6665 16.0003C14.6665 16.7367 15.2635 17.3337 15.9998 17.3337Z" stroke="#27272A" stroke-width="2" stroke-linecap="round" stroke-linejoin="round"/>
<path d="M25.3333 17.3337C26.0697 17.3337 26.6667 16.7367 26.6667 16.0003C26.6667 15.2639 26.0697 14.667 25.3333 14.667C24.597 14.667 24 15.2639 24 16.0003C24 16.7367 24.597 17.3337 25.3333 17.3337Z" stroke="#27272A" stroke-width="2" stroke-linecap="round" stroke-linejoin="round"/>
<path d="M6.66683 17.3337C7.40321 17.3337 8.00016 16.7367 8.00016 16.0003C8.00016 15.2639 7.40321 14.667 6.66683 14.667C5.93045 14.667 5.3335 15.2639 5.3335 16.0003C5.3335 16.7367 5.93045 17.3337 6.66683 17.3337Z" stroke="#27272A" stroke-width="2" stroke-linecap="round" stroke-linejoin="round"/>
</svg>
